<svg width="396" height="326" viewBox="0 0 396 326" fill="none" xmlns="http://www.w3.org/2000/svg">
    <g clip-path="url(#clip0_72_7321)">
        <path d="M395.35 292.469L361.943 259.062L328.536 292.469L361.943 325.876L395.35 292.469Z" fill="#C1AAFD"/>
        <path d="M153.835 33.4067C153.835 14.9559 138.879 0 120.428 0C101.977 0 87.0215 14.9559 87.0215 33.4067C87.0215 51.8576 101.977 66.8135 120.428 66.8135C138.879 66.8135 153.835 51.8526 153.835 33.4067Z" fill="#FFD260"/>
        <path d="M392.439 98.3381C391.088 91.3833 389.37 84.5588 387.122 77.9696C385.335 72.7322 383.212 67.6601 380.868 62.7132C368.866 39.4857 349.234 20.8646 325.27 10.1446C323.733 9.4687 322.191 8.80277 320.624 8.1869C319.628 7.79135 318.636 7.38578 317.625 7.02027C315.116 6.11901 312.573 5.30788 309.989 4.57185C309.403 4.40161 308.812 4.23137 308.222 4.07115C305.388 3.31509 302.519 2.65917 299.605 2.11341C299.129 2.02328 298.648 1.94317 298.168 1.85805C295.163 1.33231 292.119 0.906718 289.04 0.616312C288.664 0.581263 288.279 0.561235 287.903 0.531193C284.674 0.260814 281.414 0.0905762 278.109 0.0905762C275.786 0.0905762 273.473 0.180702 271.185 0.315891C270.389 0.360955 269.598 0.43606 268.806 0.496144C267.349 0.611305 265.897 0.751501 264.455 0.921739C263.464 1.0369 262.473 1.15707 261.491 1.29726C260.375 1.45749 259.273 1.64776 258.167 1.83802C225.431 7.52598 197.427 26.9732 180.328 54.026H271.851L169.753 156.119L113.99 211.887L0.000335693 325.871H57.661L102.884 280.648H126.778L81.5545 325.871H139.215L184.438 280.648H237.297C238.875 280.698 240.422 280.843 242.009 280.843C326.697 280.843 395.349 212.192 395.349 127.504C395.349 117.52 394.277 107.791 392.439 98.3381Z" fill="#372D56"/>
        <path d="M278.119 34.588C282.148 34.588 285.414 31.3218 285.414 27.2928C285.414 23.2637 282.148 19.9976 278.119 19.9976C274.09 19.9976 270.824 23.2637 270.824 27.2928C270.824 31.3218 274.09 34.588 278.119 34.588Z" fill="white"/>
    </g>
    <defs>
        <clipPath id="clip0_72_7321">
            <rect width="395.348" height="325.871" fill="white"/>
        </clipPath>
    </defs>
</svg>