<svg version="1.0" xmlns="http://www.w3.org/2000/svg"
     width="50.000000pt" height="52.000000pt" viewBox="0 0 50.000000 52.000000"
     preserveAspectRatio="xMidYMid meet">

    <g transform="translate(0.000000,52.000000) scale(0.100000,-0.100000)"
       fill="white" stroke="none">
        <path d="M328 514 c-4 -3 -64 -6 -135 -6 -70 0 -136 -4 -145 -9 -25 -13 -48
-62 -48 -100 0 -45 37 -180 61 -218 28 -46 45 -49 83 -12 31 30 56 40 56 22 0
-5 -11 -12 -25 -15 -14 -4 -25 -13 -25 -20 0 -18 36 -27 65 -16 22 8 23 6 27
-46 7 -88 57 -120 112 -71 19 16 28 37 34 77 7 53 8 55 44 61 69 11 92 49 30
49 l-39 0 29 57 c15 32 33 83 40 114 14 68 1 96 -55 123 -34 16 -98 22 -109
10z m-151 -28 c2 -1 -6 -20 -17 -41 -23 -45 -29 -192 -9 -212 9 -9 8 -18 -5
-38 -40 -60 -66 -42 -101 67 -24 76 -32 158 -19 193 11 27 64 46 109 39 22 -4
41 -7 42 -8z m148 -6 c22 -11 48 -33 58 -49 21 -36 21 -41 -1 -41 -23 0 -42
-19 -42 -42 0 -10 13 -45 30 -78 16 -32 26 -61 21 -64 -5 -3 -12 -36 -16 -73
-8 -83 -25 -113 -63 -113 -43 0 -52 17 -52 96 0 54 -4 77 -16 89 -14 13 -15
21 -5 41 6 14 11 45 11 69 0 55 -21 79 -63 71 -29 -6 -29 -5 -23 27 8 40 57
87 93 87 15 0 45 -9 68 -20z m114 5 c50 -26 54 -70 14 -177 l-28 -73 -5 91
c-5 94 -11 110 -59 151 l-26 23 38 0 c21 0 51 -7 66 -15z m-209 -171 c0 -84
-32 -120 -65 -71 -22 34 -10 116 19 127 31 11 46 -7 46 -56z m176 -1 c1 -35
-1 -63 -5 -63 -11 0 -41 68 -41 94 0 27 9 38 28 34 11 -2 16 -21 18 -65z m47
-124 c21 0 21 -1 2 -9 -32 -14 -55 -11 -55 6 0 11 5 14 16 10 9 -3 25 -6 37
-7z m-213 -7 c0 -16 -25 -32 -50 -32 l-25 0 30 19 c33 22 45 25 45 13z"/>
        <path d="M200 360 c0 -5 5 -10 11 -10 5 0 7 5 4 10 -3 6 -8 10 -11 10 -2 0 -4
-4 -4 -10z"/>
        <path d="M370 360 c0 -5 5 -10 10 -10 6 0 10 5 10 10 0 6 -4 10 -10 10 -5 0
-10 -4 -10 -10z"/>
    </g>
</svg>
