<svg width="32" height="32" viewBox="0 0 32 32" fill="none" xmlns="http://www.w3.org/2000/svg">
<g clip-path="url(#clip0_3159_22821)">
<path d="M28.0108 11.8628C27.9301 11.4492 27.8282 11.0435 27.6954 10.6517C27.5891 10.3397 27.4632 10.0394 27.3231 9.74431C26.6088 8.36353 25.4415 7.25613 24.0169 6.61825C23.9258 6.57789 23.8342 6.53841 23.7409 6.50152C23.6819 6.47852 23.6229 6.45422 23.563 6.43209C23.4142 6.37872 23.2627 6.33055 23.1087 6.28629C23.074 6.27588 23.0393 6.26546 23.0037 6.25635C22.8349 6.21122 22.6639 6.17217 22.4916 6.13962C22.4626 6.13398 22.4352 6.12921 22.4062 6.12443C22.2269 6.09319 22.0469 6.06802 21.8629 6.05067C21.8407 6.0485 21.8177 6.04719 21.796 6.04502C21.6043 6.02897 21.4098 6.01855 21.2137 6.01855C21.0762 6.01855 20.9386 6.0242 20.8023 6.03244C20.755 6.03591 20.7077 6.03938 20.6613 6.04285C20.5745 6.0498 20.489 6.05804 20.4027 6.06846C20.3437 6.0754 20.2847 6.08234 20.2256 6.09146C20.1597 6.10057 20.0937 6.11228 20.0282 6.124C18.0811 6.46247 16.417 7.61933 15.3999 9.22793H20.8418L14.7707 15.2982L11.455 18.6139L4.03125 26.0363H7.46019L10.7941 22.7024H12.2144L8.84574 26.071H12.2747L15.6433 22.7024H16.4717L19.1365 25.3672H17.2263V26.065H24.1649V25.3672H22.7043L22.9295 25.5924L22.6704 25.851C22.4947 25.8567 22.3328 25.8823 22.1888 25.9296L21.6259 25.3668H20.2139L20.3732 25.526L20.2135 25.3668L18.0534 23.2071L18.2777 22.702H18.785C18.8462 22.7042 18.9065 22.7068 18.9677 22.7089L21.6246 25.3659H22.7017L20.5185 23.1828L20.8041 22.5449C25.0072 21.7326 28.1818 18.0355 28.1818 13.5955L28.184 13.5968C28.184 13.0027 28.1202 12.4251 28.0108 11.8623V11.8628ZM21.1738 8.0754C20.9299 8.0754 20.7312 7.87666 20.7312 7.63279C20.7312 7.38892 20.9286 7.19017 21.1738 7.19017C21.419 7.19017 21.6164 7.38892 21.6164 7.63279C21.6164 7.87666 21.4177 8.0754 21.1738 8.0754Z" fill="#372D56"/>
<path d="M22.1885 25.9293C22.333 25.882 22.4948 25.8564 22.6706 25.8507L22.9292 25.5917L22.704 25.3665H21.627L22.1898 25.9293H22.1885Z" fill="#372D56"/>
<path d="M24.1504 24.0107L26.1773 26.0389L28.1847 24.0315V23.9911L26.1773 21.9838L24.1504 24.0107Z" fill="#C1AAFD"/>
<path d="M9.49349 8.02932C9.49349 9.1493 10.4008 10.0562 11.5204 10.0562C12.6399 10.0562 13.5473 9.148 13.5473 8.02932C13.5477 6.99482 12.7732 6.14431 11.7725 6.01978H11.2674C10.2676 6.14475 9.49219 6.99613 9.49219 8.02932H9.49349Z" fill="#FFD260"/>
</g>
<defs>
<clipPath id="clip0_3159_22821">
<rect width="32" height="32" fill="white"/>
</clipPath>
</defs>
</svg>
