<svg width="239" height="159" viewBox="0 0 239 159" fill="none" xmlns="http://www.w3.org/2000/svg">
    <g clip-path="url(#clip0_3728_7251)">
        <path opacity="0.22"
              d="M102.93 158.51C149.743 158.51 187.692 156.109 187.692 153.148C187.692 150.186 149.743 147.785 102.93 147.785C56.1168 147.785 18.1675 150.186 18.1675 153.148C18.1675 156.109 56.1168 158.51 102.93 158.51Z"
              fill="#C1AAFD"/>
        <path d="M66.307 134.467L73.0539 119.631L70.8218 118.233L66.5249 125.097C66.1343 125.722 65.2149 125.735 64.8296 125.105C64.2583 124.173 63.5541 123.373 62.7277 122.756C62.717 122.748 62.7091 122.74 62.6984 122.735C61.2396 121.656 59.151 122.549 58.8533 124.34L58.7019 125.257C59.3263 125.36 59.8817 125.589 60.3521 125.94C62.1192 127.26 62.4619 130.101 61.5027 133.117L61.4469 133.207L61.4601 133.221C61.4601 133.221 61.4601 133.244 61.4601 133.255C61.0058 134.629 60.283 136.037 59.3051 137.35C56.1376 141.594 51.2641 143.539 48.6653 141.599C48.0515 141.139 47.5971 140.486 47.3154 139.659L47.1188 139.726C44.9371 140.464 44.4136 143.363 46.2498 144.753C46.2631 144.764 46.2737 144.772 46.287 144.782C47.6954 145.835 49.3642 146.334 51.1339 146.334C52.6087 146.334 54.3014 146.167 56.0074 145.726C52.3775 148.901 48.2215 149.818 47.9186 149.882C48.365 152.071 50.7194 153.302 52.7628 152.393C54.0543 151.816 55.5371 151.027 57.0198 149.962C58.965 148.566 61.0988 146.547 62.733 143.735C61.8641 148.128 59.6585 150.953 59.5124 151.136C61.2662 152.552 63.8756 151.944 64.8376 149.903C66.4399 146.504 68.0343 141.03 66.3044 134.509V134.464L66.307 134.467Z"
              fill="url(#paint0_linear_3728_7251)"/>
        <path d="M14.9813 135.867C18.7175 129.981 23.7849 126.059 28.661 123.452C35.291 119.908 42.7659 118.26 50.2834 118.443C92.1623 119.458 127.826 139.603 127.826 139.603C127.576 135.992 127.887 132.644 128.495 129.654C129.787 123.296 132.792 117.428 136.975 112.47C152.61 93.9379 157.133 71.6166 158.438 59.7678C159.046 54.2406 161.953 49.2289 166.436 45.9419V40.2128L162.804 37.218C158.709 33.8406 153.57 31.9938 148.26 31.9938C140.902 31.9938 133.996 35.5359 129.704 41.5095L121.988 52.2503C117.943 57.8784 112.602 62.4463 106.419 65.5713L-0.000488281 119.326L3.43273 123.118L27.8399 110.58L4.48767 124.281L8.88283 129.134L32.0836 116.442L9.94841 130.313"
              fill="url(#paint1_linear_3728_7251)"/>
        <path d="M185.942 25.8687L168.061 60.0713L189.436 71.2461L207.317 37.0435L185.942 25.8687Z"
              fill="url(#paint2_linear_3728_7251)"/>
        <path d="M168.063 60.0735L187.692 48.5594L185.944 25.8715L168.063 60.0735Z"
              fill="url(#paint3_linear_3728_7251)"/>
        <path d="M190.368 46.6966C185.556 42.6947 179.877 40.1224 173.882 39.2296L163.304 37.6538C161.422 37.3748 159.605 38.5174 158.887 40.4333C157.768 43.4201 159.783 46.6939 162.74 46.6939H190.368V46.6966Z"
              fill="url(#paint4_linear_3728_7251)"/>
        <path d="M151.098 42.8116C153.009 42.8116 154.558 41.2626 154.558 39.3518C154.558 37.441 153.009 35.892 151.098 35.892C149.188 35.892 147.639 37.441 147.639 39.3518C147.639 41.2626 149.188 42.8116 151.098 42.8116Z"
              fill="url(#paint5_linear_3728_7251)"/>
        <path d="M151.829 39.9364C152.586 39.9364 153.2 39.3225 153.2 38.5653C153.2 37.808 152.586 37.1941 151.829 37.1941C151.072 37.1941 150.458 37.808 150.458 38.5653C150.458 39.3225 151.072 39.9364 151.829 39.9364Z"
              fill="white"/>
        <path d="M127.826 139.603L140.528 148.213C140.929 148.484 140.738 149.111 140.251 149.111H137.19C133.316 149.111 129.558 150.429 126.532 152.85H171.012C166.617 150.041 161.512 148.551 156.299 148.551H149.647C148.709 148.551 147.79 148.282 146.998 147.775L127.778 135.455L127.826 139.603Z"
              fill="url(#paint6_linear_3728_7251)"/>
        <path d="M145.949 55.1388C140.833 52.2264 134.575 52.1653 129.402 54.974L123.069 58.4126C101.062 70.3624 83.9354 83.6754 68.5391 103.427C65.0713 107.66 67.5718 114.059 72.9927 114.819L76.2612 115.276C78.8547 111.479 86.7654 100.555 102.308 89.7739C102.308 89.7739 90.7221 100.841 82.5775 110.434C79.3941 114.184 81.31 119.977 86.1011 121.093C86.1011 121.093 86.1117 121.093 86.117 121.095C91.6309 122.379 97.4344 121.454 102.263 118.497C113.046 111.893 125.575 102.505 125.575 102.505C115.616 112.892 103.897 120.078 97.0305 123.785C98.8136 123.997 100.61 124.117 102.409 124.125C134.674 124.263 148.508 93.1486 153.878 74.6885C156.078 67.1231 152.794 59.0397 145.949 55.1414V55.1388Z"
              fill="url(#paint7_linear_3728_7251)"/>
        <path d="M188.824 24.3248L186.682 0H191.303L188.821 24.3248H188.824ZM229.233 16.5443L225.965 13.2758L210.276 31.9885L229.23 16.5443H229.233ZM167.712 31.9885L152.023 13.2758L148.754 16.5443L167.709 31.9885H167.712ZM186.685 99.3136H191.306L189.166 74.9887L186.685 99.3136ZM238.127 53.1777V48.5567L213.802 50.6958L238.127 53.1777ZM148.757 85.2432L152.026 88.5117L167.714 69.799L148.76 85.2432H148.757ZM210.279 69.799L225.967 88.5117L229.236 85.2432L210.281 69.799H210.279Z"
              fill="#C7AEFF"/>
    </g>
    <defs>
        <linearGradient id="paint0_linear_3728_7251" x1="71.6907" y1="121.717" x2="53.8949" y2="147.355"
                        gradientUnits="userSpaceOnUse">
            <stop offset="0.22" stop-color="#C1AAFD"/>
            <stop offset="0.77" stop-color="#FFD260"/>
        </linearGradient>
        <linearGradient id="paint1_linear_3728_7251" x1="52.3481" y1="139.484" x2="171.033" y2="36.6786"
                        gradientUnits="userSpaceOnUse">
            <stop stop-color="#05030F"/>
            <stop offset="0.2" stop-color="#171229"/>
            <stop offset="0.56" stop-color="#372D56"/>
            <stop offset="0.73" stop-color="#382E57"/>
            <stop offset="0.78" stop-color="#3E335E"/>
            <stop offset="0.83" stop-color="#473C6A"/>
            <stop offset="0.86" stop-color="#55487B"/>
            <stop offset="0.89" stop-color="#685991"/>
            <stop offset="0.91" stop-color="#7E6DAC"/>
            <stop offset="0.94" stop-color="#9986CD"/>
            <stop offset="0.96" stop-color="#C1AAFD"/>
        </linearGradient>
        <linearGradient id="paint2_linear_3728_7251" x1="165.897" y1="38.822" x2="199.626" y2="53.8968"
                        gradientUnits="userSpaceOnUse">
            <stop offset="0.4" stop-color="#C1AAFD"/>
            <stop offset="0.54" stop-color="#CBB6F3"/>
            <stop offset="0.81" stop-color="#E7D5D9"/>
            <stop offset="0.94" stop-color="#F7E7CC"/>
        </linearGradient>
        <linearGradient id="paint3_linear_3728_7251" x1="168.063" y1="42.9712" x2="187.692" y2="42.9712"
                        gradientUnits="userSpaceOnUse">
            <stop stop-color="#C1AAFD"/>
            <stop offset="0.98" stop-color="#F7E7CC"/>
        </linearGradient>
        <linearGradient id="paint4_linear_3728_7251" x1="176.478" y1="37.1117" x2="172.014" y2="52.6011"
                        gradientUnits="userSpaceOnUse">
            <stop offset="0.13" stop-color="#FFD260"/>
            <stop offset="1" stop-color="#F7E7CC"/>
        </linearGradient>
        <linearGradient id="paint5_linear_3728_7251" x1="153.812" y1="37.2047" x2="159.235" y2="32.9105"
                        gradientUnits="userSpaceOnUse">
            <stop offset="0.21" stop-color="#05030F"/>
            <stop offset="0.81" stop-color="#372D56"/>
        </linearGradient>
        <linearGradient id="paint6_linear_3728_7251" x1="137.506" y1="136.601" x2="148.614" y2="152.619"
                        gradientUnits="userSpaceOnUse">
            <stop stop-color="#C1AAFD"/>
            <stop offset="0.96" stop-color="#FFD260"/>
        </linearGradient>
        <linearGradient id="paint7_linear_3728_7251" x1="110.229" y1="97.3923" x2="163.24" y2="44.3821"
                        gradientUnits="userSpaceOnUse">
            <stop offset="0.21" stop-color="#05030F"/>
            <stop offset="0.81" stop-color="#372D56"/>
        </linearGradient>
        <clipPath id="clip0_3728_7251">
            <rect width="238.125" height="158.51" fill="white"/>
        </clipPath>
    </defs>
</svg>
