<svg width="48" height="77" viewBox="0 0 48 77" fill="none" xmlns="http://www.w3.org/2000/svg">
    <path d="M37.196 42.4035C34.2147 42.4035 31.5419 43.7243 29.7116 45.8039L25.0216 42.4836C25.5194 41.1129 25.8053 39.641 25.8053 38.1004C25.8053 36.5866 25.5294 35.1394 25.0479 33.7889L29.7275 30.5039C31.5576 32.5729 34.2234 33.8865 37.196 33.8865C42.6987 33.8865 47.1762 29.4098 47.1762 23.9063C47.1762 18.4029 42.6987 13.9261 37.196 13.9261C31.6933 13.9261 27.2158 18.4029 27.2158 23.9063C27.2158 24.8914 27.3647 25.8412 27.6317 26.7408L22.9491 30.0275C20.993 27.6008 18.1765 25.9065 14.9675 25.3892V19.7456C19.4883 18.7961 22.8945 14.7795 22.8945 9.98003C22.8945 4.47659 18.417 -0.000167847 12.9143 -0.000167847C7.41164 -0.000167847 2.93414 4.47659 2.93414 9.98003C2.93414 14.7152 6.25216 18.6823 10.6825 19.6996V25.4165C4.63625 26.4778 0.0233765 31.7545 0.0233765 38.1004C0.0233765 44.4773 4.68193 49.7733 10.7718 50.7986V56.8352C6.29618 57.819 2.93414 61.8104 2.93414 66.5778C2.93414 72.0812 7.41164 76.558 12.9143 76.558C18.417 76.558 22.8945 72.0812 22.8945 66.5778C22.8945 61.8104 19.5325 57.819 15.0568 56.8352V50.7984C18.1393 50.2792 20.9279 48.6573 22.9034 46.2349L27.6247 49.5766C27.3626 50.4681 27.2158 51.4086 27.2158 52.3837C27.2158 57.8871 31.6933 62.3639 37.196 62.3639C42.6987 62.3639 47.1762 57.8871 47.1762 52.3837C47.1762 46.8803 42.6987 42.4035 37.196 42.4035ZM37.196 19.0674C39.8644 19.0674 42.0347 21.2387 42.0347 23.9063C42.0347 26.574 39.8644 28.745 37.196 28.745C34.5277 28.745 32.3573 26.574 32.3573 23.9063C32.3573 21.2387 34.5277 19.0674 37.196 19.0674ZM8.07546 9.98003C8.07546 7.31239 10.246 5.14133 12.9143 5.14133C15.5827 5.14133 17.753 7.31239 17.753 9.98003C17.753 12.6477 15.5827 14.8187 12.9143 14.8187C10.246 14.8187 8.07546 12.6477 8.07546 9.98003ZM17.753 66.5778C17.753 69.2454 15.5827 71.4165 12.9143 71.4165C10.246 71.4165 8.07546 69.2454 8.07546 66.5778C8.07546 63.9102 10.246 61.7391 12.9143 61.7391C15.5827 61.7391 17.753 63.9102 17.753 66.5778ZM12.914 44.8488C9.1924 44.8488 6.16485 41.8218 6.16485 38.1004C6.16485 34.3789 9.1924 31.3513 12.914 31.3513C16.6354 31.3513 19.6629 34.3789 19.6629 38.1004C19.6629 41.8218 16.6354 44.8488 12.914 44.8488ZM37.196 57.2226C34.5277 57.2226 32.3573 55.0513 32.3573 52.3837C32.3573 49.7161 34.5277 47.545 37.196 47.545C39.8644 47.545 42.0347 49.7161 42.0347 52.3837C42.0347 55.0513 39.8644 57.2226 37.196 57.2226Z" fill="white"/>
</svg>
