<svg width="2436" height="540" viewBox="0 0 2436 540" fill="none" xmlns="http://www.w3.org/2000/svg">
    <path d="M928.993 441.956C910.133 441.956 892.1 440.302 874.894 436.993C858.018 433.684 842.963 428.721 829.728 422.103C816.823 415.485 806.566 407.213 798.955 397.286C791.676 387.029 788.036 375.117 788.036 361.551C788.036 359.896 788.036 358.407 788.036 357.084C788.367 355.76 788.698 354.602 789.029 353.61H864.967C864.967 354.271 864.802 355.099 864.471 356.091C864.471 356.753 864.471 357.415 864.471 358.077C864.802 366.018 867.945 372.47 873.901 377.433C880.188 382.066 888.294 385.54 898.221 387.856C908.148 389.842 918.736 390.834 929.986 390.834C940.574 390.834 950.832 390.172 960.758 388.849C971.016 387.194 979.453 384.547 986.071 380.908C992.689 376.937 995.998 371.312 995.998 364.032C995.998 355.76 992.027 349.804 984.086 346.165C976.144 342.525 965.225 339.712 951.328 337.727C937.431 335.411 921.217 332.764 902.688 329.786C888.46 327.47 874.894 324.492 861.989 320.852C849.415 317.212 838.165 312.58 828.239 306.955C818.312 300.999 810.536 293.389 804.911 284.124C799.286 274.859 796.474 263.609 796.474 250.373C796.474 235.815 799.783 223.406 806.4 213.149C813.349 202.561 822.779 194.123 834.691 187.836C846.934 181.218 861.327 176.421 877.872 173.443C894.747 170.134 913.111 168.479 932.964 168.479C951.163 168.479 968.038 170.134 983.589 173.443C999.141 176.421 1012.87 181.053 1024.78 187.34C1036.7 193.296 1046.13 200.906 1053.08 210.171C1060.02 219.436 1063.5 230.189 1063.5 242.432C1063.5 243.756 1063.33 245.245 1063 246.899C1063 248.223 1063 249.381 1063 250.373H987.064V247.395C987.064 241.109 984.417 235.98 979.122 232.009C974.159 227.708 967.541 224.564 959.269 222.579C950.997 220.594 941.898 219.601 931.971 219.601C927.339 219.601 921.548 219.932 914.6 220.594C907.982 220.925 901.364 221.917 894.747 223.572C888.129 225.226 882.504 227.542 877.872 230.52C873.57 233.167 871.419 237.138 871.419 242.432C871.419 249.05 875.059 254.013 882.338 257.322C889.618 260.631 899.214 263.278 911.125 265.263C923.037 266.918 935.942 268.903 949.839 271.219C965.06 273.535 979.95 276.182 994.509 279.16C1009.07 282.138 1021.97 286.44 1033.22 292.065C1044.8 297.69 1054.07 305.466 1061.02 315.392C1067.97 325.319 1071.44 338.389 1071.44 354.602C1071.44 370.816 1067.97 384.547 1061.02 395.797C1054.4 407.048 1044.8 416.147 1032.23 423.095C1019.66 429.713 1004.6 434.511 987.064 437.489C969.858 440.467 950.501 441.956 928.993 441.956ZM1114.34 436V174.435H1175.89L1181.34 216.127H1185.32C1193.92 204.877 1203.68 195.777 1214.6 188.829C1225.85 181.88 1237.93 176.752 1250.83 173.443C1263.74 170.134 1276.64 168.479 1289.54 168.479C1312.38 168.479 1331.57 172.285 1347.12 179.895C1362.67 187.174 1374.42 198.424 1382.36 213.645C1390.3 228.535 1394.27 247.892 1394.27 271.716V436H1319.32V283.627C1319.32 273.701 1318 265.263 1315.35 258.315C1312.71 251.366 1308.9 245.741 1303.94 241.44C1298.97 237.138 1292.85 233.995 1285.57 232.009C1278.63 230.024 1270.68 229.031 1261.75 229.031C1248.85 229.031 1236.93 231.844 1226.01 237.469C1215.1 242.763 1206.33 250.373 1199.71 260.3C1193.09 269.896 1189.78 281.146 1189.78 294.05V436H1114.34ZM1449.52 134.729V76.6588H1524.96V134.729H1449.52ZM1449.52 436V174.435H1524.96V436H1449.52ZM1687.82 441.956C1668.63 441.956 1652.91 439.309 1640.67 434.015C1628.43 428.721 1619.33 420.283 1613.37 408.702C1607.42 396.79 1604.44 381.239 1604.44 362.047V230.024H1559.27V174.435H1606.92L1621.81 98.0009H1679.88V174.435H1744.9V230.024H1679.88V352.121C1679.88 363.04 1682.03 371.477 1686.33 377.433C1690.96 383.389 1700.23 386.367 1714.13 386.367H1744.9V433.518C1740.6 435.173 1734.97 436.662 1728.02 437.985C1721.07 439.309 1713.96 440.302 1706.68 440.963C1699.4 441.625 1693.11 441.956 1687.82 441.956ZM1930.82 441.956C1898.39 441.956 1870.6 436.993 1847.44 427.066C1824.27 416.809 1806.57 401.588 1794.33 381.404C1782.09 361.22 1775.96 335.742 1775.96 304.97C1775.96 274.197 1782.09 248.719 1794.33 228.535C1806.57 208.351 1824.27 193.296 1847.44 183.369C1870.6 173.443 1898.39 168.479 1930.82 168.479C1951.33 168.479 1970.36 170.796 1987.9 175.428C2005.76 179.729 2021.32 186.513 2034.55 195.777C2047.79 204.711 2058.04 215.961 2065.32 229.528C2072.6 242.763 2076.24 258.315 2076.24 276.182H2000.3C2000.3 264.932 1997.16 255.502 1990.87 247.892C1984.92 239.951 1976.65 233.995 1966.06 230.024C1955.8 226.053 1943.89 224.068 1930.32 224.068C1913.78 224.068 1899.72 227.046 1888.13 233.002C1876.88 238.958 1868.28 247.561 1862.33 258.811C1856.37 270.061 1853.39 283.793 1853.39 300.006V310.429C1853.39 326.312 1856.37 340.043 1862.33 351.624C1868.61 362.874 1877.55 371.477 1889.13 377.433C1901.04 383.389 1915.76 386.367 1933.3 386.367C1946.54 386.367 1958.28 384.216 1968.54 379.915C1979.13 375.613 1987.57 369.492 1993.85 361.551C2000.14 353.61 2003.28 344.345 2003.28 333.756H2076.24C2076.24 351.624 2072.44 367.507 2064.83 381.404C2057.55 394.97 2047.29 406.22 2034.06 415.154C2021.15 424.088 2005.76 430.871 1987.9 435.504C1970.36 439.805 1951.33 441.956 1930.82 441.956ZM2122.54 436V76.6588H2197.99V207.689H2201.46C2209.73 198.424 2219 190.98 2229.26 185.355C2239.84 179.399 2250.93 175.097 2262.51 172.45C2274.09 169.803 2285.84 168.479 2297.75 168.479C2320.58 168.479 2339.77 172.285 2355.32 179.895C2370.87 187.174 2382.62 198.424 2390.56 213.645C2398.5 228.535 2402.47 247.892 2402.47 271.716V436H2327.53V283.627C2327.53 273.701 2326.2 265.263 2323.56 258.315C2320.91 251.366 2317.11 245.741 2312.14 241.44C2307.18 237.138 2301.06 233.995 2293.78 232.009C2286.83 230.024 2278.89 229.031 2269.95 229.031C2257.05 229.031 2245.14 231.844 2234.22 237.469C2223.3 242.763 2214.53 250.373 2207.91 260.3C2201.3 269.896 2197.99 281.146 2197.99 294.05V436H2122.54Z" fill="#372D56"/>
    <path d="M600.266 165.295C598.245 154.943 595.693 144.786 592.369 134.978C589.708 127.168 586.558 119.651 583.049 112.264C565.17 77.7003 535.95 49.9795 500.289 34.0118C498.008 33.0016 495.716 32.0131 493.38 31.0898C491.903 30.5141 490.426 29.9058 488.927 29.3518C485.201 28.0158 481.41 26.8101 477.554 25.7021C476.685 25.4414 475.816 25.1807 474.925 24.9526C470.699 23.8229 466.42 22.8453 462.107 22.0306C461.38 21.8894 460.695 21.7699 459.967 21.6504C455.481 20.8683 450.973 20.2383 446.368 19.8038C445.814 19.7495 445.238 19.7169 444.695 19.6626C439.894 19.2607 435.027 19 430.118 19C426.674 19 423.231 19.1412 419.82 19.3476C418.636 19.4345 417.452 19.5214 416.29 19.6083C414.117 19.7821 411.977 19.9885 409.816 20.2492C408.339 20.423 406.861 20.5968 405.384 20.8249C403.733 21.053 402.082 21.3463 400.442 21.6396C351.702 30.1122 310.045 59.0713 284.583 99.3382H420.809L268.833 251.292L185.834 334.291L0 520.092H85.8345L169.29 436.637H204.843L120.518 520.961H206.353L290.677 436.637H311.414L378.119 503.343H330.303V520.809H503.993V503.343H467.43L473.067 508.98L466.583 515.454C462.183 515.595 458.132 516.236 454.525 517.42L440.437 503.332H405.091L409.077 507.318L405.08 503.332L351.007 449.27L356.623 436.626H369.321C370.852 436.68 372.362 436.745 373.894 436.8L440.404 503.31H467.365L412.716 448.661L419.864 432.694C525.077 412.359 604.546 319.812 604.546 208.668L604.6 208.701C604.6 193.83 603.003 179.372 600.266 165.284V165.295ZM429.118 70.4877C423.014 70.4877 418.039 65.5127 418.039 59.4081C418.039 53.3034 422.981 48.3284 429.118 48.3284C435.256 48.3284 440.198 53.3034 440.198 59.4081C440.198 65.5127 435.223 70.4877 429.118 70.4877Z" fill="#372D56"/>
    <path d="M454.525 517.411C458.142 516.227 462.194 515.586 466.593 515.445L473.067 508.96L467.43 503.322H440.469L454.558 517.411H454.525Z" fill="#372D56"/>
    <path d="M503.611 469.389L554.349 520.16L604.599 469.91V468.9L554.349 418.651L503.611 469.389Z" fill="#C1AAFD"/>
    <path d="M136.712 69.3379C136.712 97.3737 159.425 120.076 187.45 120.076C215.475 120.076 238.188 97.3411 238.188 69.3379C238.199 43.4419 218.81 22.1517 193.761 19.0342H181.117C156.09 22.1625 136.679 43.4745 136.679 69.3379H136.712Z" fill="#FFD260"/>
</svg>
