<svg width="32" height="32" viewBox="0 0 32 32" fill="none" xmlns="http://www.w3.org/2000/svg">
<circle cx="16" cy="16" r="14" fill="white"/>
<path d="M24.3625 23.9484L22.3109 21.8968L20.2593 23.9484L22.3109 26L24.3625 23.9484Z" fill="#C1AAFD"/>
<path d="M16.1597 21.9038L16.1597 25.9862C11.6706 25.9862 8.01849 22.3341 8.01849 17.845L12.1009 17.845C12.1008 20.083 13.9215 21.9038 16.1597 21.9038Z" fill="#372D56"/>
<path d="M24.3403 14.1413L20.2579 14.1413C20.2579 11.9033 18.4371 10.0824 16.199 10.0824L16.199 6.00004C20.6882 6.00013 24.3403 9.65225 24.3403 14.1413Z" fill="#372D56"/>
<path d="M12.0833 8.04164C12.0833 6.91408 11.1692 6.00001 10.0416 6.00001C8.91407 6.00001 8 6.91408 8 8.04164C8 9.16921 8.91407 10.0833 10.0416 10.0833C11.1692 10.0833 12.0833 9.16921 12.0833 8.04164Z" fill="#FFD260"/>
<path d="M8.08225 12.6579C8.30773 13.9243 9.12462 15.6485 11.7363 16.6709C13.5476 17.38 15.1606 17.7143 16.457 17.9829C18.7516 18.4585 20.1731 18.7546 20.3319 20.5612L24.3459 20.5612C24.3455 20.2677 24.3235 19.9488 24.2642 19.6157C24.0387 18.3493 23.2218 16.6251 20.6101 15.6027C18.7989 14.8936 17.1856 14.5593 15.8893 14.2906C13.5135 13.7982 12.0724 13.4996 12.0014 11.5157L8.00307 11.5157C7.99197 11.8606 8.00936 12.249 8.08225 12.6579Z" fill="#372D56"/>
</svg>
