<svg width="16" height="16" viewBox="0 0 16 16" fill="none" xmlns="http://www.w3.org/2000/svg">
<circle cx="8" cy="8" r="7" fill="white"/>
<path d="M12.1812 11.9742L11.1554 10.9484L10.1297 11.9742L11.1554 13L12.1812 11.9742Z" fill="#C1AAFD"/>
<path d="M8.07983 10.9519L8.07983 12.9931C5.83531 12.9931 4.00925 11.167 4.00925 8.92252L6.05043 8.92252C6.05039 10.0415 6.96076 10.9519 8.07983 10.9519Z" fill="#372D56"/>
<path d="M12.1701 7.07065L10.129 7.07065C10.129 5.95163 9.21854 5.04121 8.09951 5.04121L8.09951 3.00002C10.3441 3.00006 12.1701 4.82612 12.1701 7.07065Z" fill="#372D56"/>
<path d="M6.04164 4.02084C6.04164 3.45705 5.5846 3.00002 5.02082 3.00002C4.45704 3.00002 4 3.45705 4 4.02084C4 4.58462 4.45704 5.04166 5.02082 5.04166C5.5846 5.04166 6.04164 4.58462 6.04164 4.02084Z" fill="#FFD260"/>
<path d="M4.04112 6.32893C4.15386 6.96213 4.56231 7.82426 5.86814 8.33542C6.77378 8.68997 7.58032 8.85714 8.22849 8.99144C9.37578 9.22923 10.0866 9.3773 10.1659 10.2806L12.1729 10.2806C12.1728 10.1339 12.1618 9.97437 12.1321 9.80785C12.0193 9.17465 11.6109 8.31252 10.3051 7.80135C9.39947 7.4468 8.5928 7.27964 7.94467 7.14529C6.75674 6.89909 6.0362 6.74979 6.00068 5.75786L4.00153 5.75786C3.99598 5.93029 4.00468 6.1245 4.04112 6.32893Z" fill="#372D56"/>
</svg>
