<svg width="1555" height="241" viewBox="0 0 1555 241" fill="none" xmlns="http://www.w3.org/2000/svg">
<path d="M189.999 212.415L166.176 188.592L142.353 212.415L166.176 236.237L189.999 212.415Z" fill="#C1AAFD"/>
<path d="M94.749 188.675L94.749 236.079C42.6228 236.079 0.214842 193.671 0.21484 141.545L47.6188 141.545C47.6178 167.533 68.7601 188.675 94.749 188.675Z" fill="#372D56"/>
<path d="M189.742 98.5347L142.338 98.5347C142.338 72.5468 121.195 51.4035 95.207 51.4035L95.207 3.99952C147.334 4.00056 189.742 46.4085 189.742 98.5347Z" fill="#372D56"/>
<path d="M47.4144 27.7073C47.4144 14.6142 36.8003 4.00012 23.7072 4.00012C10.6141 4.00013 -1.60859e-06 14.6142 -1.03628e-06 27.7073C-4.63957e-07 40.8005 10.6141 51.4146 23.7072 51.4145C36.8003 51.4145 47.4144 40.8005 47.4144 27.7073Z" fill="#FFD260"/>
<path d="M0.955045 81.3098C3.57331 96.015 13.0589 116.037 43.3851 127.908C64.4175 136.142 83.1483 140.024 98.2013 143.143C124.846 148.666 141.353 152.104 143.196 173.083L189.806 173.083C189.802 169.674 189.546 165.971 188.857 162.103C186.239 147.398 176.753 127.376 146.427 115.505C125.396 107.271 106.662 103.389 91.6099 100.269C64.0217 94.5511 47.2882 91.0837 46.4631 68.0474L0.0356068 68.0474C-0.0932766 72.052 0.108675 76.5621 0.955045 81.3098Z" fill="#372D56"/>
<path d="M367.275 196.656C358.864 196.656 350.821 195.918 343.148 194.443C335.622 192.967 328.908 190.754 323.005 187.802C317.25 184.851 312.675 181.162 309.281 176.735C306.035 172.16 304.411 166.848 304.411 160.797C304.411 160.059 304.411 159.395 304.411 158.805C304.559 158.215 304.706 157.698 304.854 157.256H338.721C338.721 157.551 338.647 157.92 338.499 158.362C338.499 158.658 338.499 158.953 338.499 159.248C338.647 162.789 340.049 165.667 342.705 167.881C345.509 169.946 349.124 171.496 353.551 172.529C357.978 173.414 362.701 173.857 367.718 173.857C372.44 173.857 377.015 173.562 381.442 172.972C386.016 172.234 389.779 171.053 392.731 169.43C395.682 167.659 397.158 165.151 397.158 161.904C397.158 158.215 395.387 155.559 391.845 153.935C388.304 152.312 383.434 151.058 377.236 150.172C371.038 149.139 363.807 147.959 355.544 146.631C349.198 145.598 343.148 144.27 337.393 142.646C331.785 141.023 326.768 138.957 322.341 136.449C317.914 133.792 314.446 130.398 311.937 126.266C309.429 122.135 308.174 117.117 308.174 111.215C308.174 104.722 309.65 99.1878 312.601 94.6132C315.7 89.891 319.906 86.1281 325.218 83.3243C330.678 80.3729 337.098 78.2332 344.476 76.9051C352.002 75.4294 360.192 74.6916 369.046 74.6916C377.162 74.6916 384.688 75.4294 391.624 76.9051C398.559 78.2332 404.684 80.2991 409.996 83.1029C415.308 85.7591 419.514 89.1532 422.613 93.2851C425.712 97.417 427.261 102.213 427.261 107.673C427.261 108.263 427.188 108.927 427.04 109.665C427.04 110.255 427.04 110.772 427.04 111.215H393.173V109.886C393.173 107.083 391.993 104.795 389.632 103.025C387.418 101.106 384.467 99.7043 380.778 98.8189C377.088 97.9335 373.03 97.4908 368.603 97.4908C366.537 97.4908 363.955 97.6383 360.856 97.9335C357.905 98.081 354.953 98.5237 352.002 99.2616C349.051 99.9994 346.542 101.032 344.476 102.361C342.558 103.541 341.598 105.312 341.598 107.673C341.598 110.624 343.222 112.838 346.468 114.313C349.715 115.789 353.994 116.97 359.307 117.855C364.619 118.593 370.374 119.478 376.572 120.511C383.36 121.544 390.001 122.725 396.494 124.053C402.987 125.381 408.742 127.299 413.759 129.808C418.924 132.317 423.056 135.785 426.155 140.212C429.254 144.639 430.803 150.468 430.803 157.698C430.803 164.929 429.254 171.053 426.155 176.071C423.203 181.088 418.924 185.146 413.316 188.245C407.709 191.196 400.994 193.336 393.173 194.664C385.5 195.992 376.867 196.656 367.275 196.656ZM501.732 196.656C493.173 196.656 486.164 195.476 480.704 193.115C475.244 190.754 471.186 186.991 468.53 181.826C465.873 176.513 464.545 169.578 464.545 161.019V102.139H444.402V77.3478H465.652L472.293 43.2597H498.191V77.3478H527.188V102.139H498.191V156.592C498.191 161.461 499.15 165.224 501.068 167.881C503.134 170.537 507.266 171.865 513.464 171.865H527.188V192.893C525.269 193.631 522.761 194.295 519.662 194.885C516.563 195.476 513.39 195.918 510.144 196.214C506.897 196.509 504.093 196.656 501.732 196.656ZM550.34 194V77.3478H577.787L580.222 97.0481H581.772C583.69 92.7686 586.125 88.9319 589.076 85.5378C592.175 82.1437 595.864 79.4875 600.144 77.5691C604.423 75.6508 609.293 74.6916 614.753 74.6916C617.409 74.6916 619.918 74.9129 622.279 75.3556C624.788 75.6508 627.001 76.1672 628.919 76.9051V105.681H614.089C608.776 105.681 604.202 106.566 600.365 108.337C596.528 109.96 593.429 112.321 591.068 115.42C588.707 118.372 586.936 121.766 585.756 125.602C584.575 129.439 583.985 133.645 583.985 138.219V194H550.34ZM708.81 196.656C694.201 196.656 681.584 194.516 670.959 190.237C660.482 185.81 652.439 179.096 646.832 170.094C641.224 161.092 638.42 149.656 638.42 135.785C638.42 122.061 641.15 110.698 646.61 101.696C652.218 92.5473 660.187 85.7591 670.516 81.3321C680.994 76.9051 693.389 74.6916 707.703 74.6916C722.46 74.6916 734.856 76.9051 744.89 81.3321C755.072 85.7591 762.746 92.3259 767.911 101.032C773.076 109.739 775.658 120.659 775.658 133.792V143.311H673.172C673.615 150.099 675.238 155.706 678.042 160.133C680.994 164.413 685.052 167.585 690.217 169.651C695.529 171.57 701.948 172.529 709.474 172.529C713.016 172.529 716.557 172.16 720.099 171.422C723.788 170.537 727.182 169.356 730.281 167.881C733.38 166.257 735.889 164.265 737.807 161.904C739.873 159.395 740.98 156.518 741.127 153.271H775.215C775.215 159.764 773.666 165.741 770.567 171.201C767.468 176.513 762.967 181.088 757.065 184.925C751.31 188.614 744.3 191.491 736.036 193.557C727.92 195.623 718.845 196.656 708.81 196.656ZM673.394 122.725H740.242C740.242 118.741 739.43 115.273 737.807 112.321C736.331 109.222 734.118 106.714 731.167 104.795C728.215 102.729 724.821 101.254 720.984 100.368C717.148 99.3354 712.942 98.8189 708.367 98.8189C701.579 98.8189 695.677 99.7781 690.659 101.696C685.642 103.467 681.658 106.123 678.706 109.665C675.902 113.207 674.132 117.56 673.394 122.725ZM841.17 196.656C835.119 196.656 829.29 196.14 823.683 195.107C818.075 194.074 813.058 192.303 808.631 189.794C804.204 187.286 800.736 183.818 798.227 179.391C795.719 174.964 794.464 169.356 794.464 162.568C794.464 153.566 796.825 146.409 801.548 141.097C806.27 135.785 812.91 131.874 821.469 129.365C830.028 126.709 840.137 125.012 851.794 124.274C863.452 123.389 876.217 122.946 890.088 122.946V117.412C890.088 113.133 889.055 109.591 886.989 106.788C885.071 103.984 881.972 101.992 877.693 100.811C873.561 99.4829 868.027 98.8189 861.091 98.8189C855.484 98.8189 850.54 99.2616 846.261 100.147C841.981 101.032 838.661 102.361 836.3 104.131C833.939 105.902 832.758 108.042 832.758 110.551V112.985H799.334C799.187 112.248 799.039 111.657 798.891 111.215C798.891 110.624 798.891 109.886 798.891 109.001C798.891 102.213 801.326 96.2365 806.196 91.0716C811.213 85.9067 818.444 81.9224 827.888 79.1186C837.333 76.1672 848.991 74.6916 862.862 74.6916C875.995 74.6916 887.063 76.0197 896.065 78.6759C905.066 81.1846 911.928 85.3164 916.65 91.0716C921.373 96.6792 923.734 104.131 923.734 113.428V163.232C923.734 166.036 924.324 168.176 925.504 169.651C926.685 171.127 928.53 171.865 931.038 171.865H941.442V192.893C939.818 193.484 937.015 194.221 933.03 195.107C929.194 196.14 924.914 196.656 920.192 196.656C913.994 196.656 909.051 195.918 905.361 194.443C901.672 192.967 898.868 190.901 896.95 188.245C895.032 185.589 893.63 182.637 892.744 179.391H891.195C887.506 182.932 883.079 186.031 877.914 188.688C872.897 191.344 867.289 193.336 861.091 194.664C855.041 195.992 848.4 196.656 841.17 196.656ZM850.688 172.529C854.82 172.529 859.173 172.012 863.747 170.979C868.322 169.946 872.601 168.471 876.586 166.552C880.57 164.634 883.817 162.199 886.325 159.248C888.834 156.296 890.088 152.902 890.088 149.066V142.868C876.512 142.868 865.075 143.458 855.779 144.639C846.63 145.672 839.694 147.516 834.972 150.172C830.397 152.681 828.11 156.223 828.11 160.797C828.11 163.896 829.143 166.257 831.209 167.881C833.422 169.504 836.226 170.684 839.62 171.422C843.162 172.16 846.851 172.529 850.688 172.529ZM956.511 194V77.3478H983.958L986.393 95.9413H988.164C991.853 90.924 996.059 86.8659 1000.78 83.767C1005.5 80.6681 1010.59 78.3808 1016.05 76.9051C1021.66 75.4294 1027.27 74.6916 1032.88 74.6916C1042.76 74.6916 1051.03 76.4624 1057.67 80.004C1064.46 83.3981 1069.47 88.7105 1072.72 95.9413H1074.71C1078.4 90.924 1082.68 86.8659 1087.55 83.767C1092.42 80.6681 1097.59 78.3808 1103.05 76.9051C1108.65 75.4294 1114.26 74.6916 1119.87 74.6916C1129.61 74.6916 1137.8 76.3148 1144.44 79.5613C1151.08 82.8078 1156.1 87.8251 1159.49 94.6132C1162.88 101.401 1164.58 110.034 1164.58 120.511V194H1131.16V125.824C1131.16 121.544 1130.57 117.855 1129.39 114.756C1128.35 111.657 1126.8 109.149 1124.74 107.23C1122.67 105.312 1120.16 103.91 1117.21 103.025C1114.41 102.139 1111.16 101.696 1107.47 101.696C1102.16 101.696 1097.22 102.951 1092.64 105.459C1088.07 107.821 1084.38 111.215 1081.57 115.642C1078.77 119.921 1077.37 124.938 1077.37 130.693V194H1043.94V125.824C1043.94 121.544 1043.35 117.855 1042.17 114.756C1041.14 111.657 1039.59 109.149 1037.53 107.23C1035.46 105.312 1032.95 103.91 1030 103.025C1027.2 102.139 1023.95 101.696 1020.26 101.696C1014.8 101.696 1009.78 102.951 1005.21 105.459C1000.63 107.821 996.944 111.215 994.141 115.642C991.484 119.921 990.156 124.938 990.156 130.693V194H956.511ZM1245.22 196.656C1233.85 196.656 1223.97 194.516 1215.56 190.237C1207.14 185.81 1200.58 179.096 1195.86 170.094C1191.13 160.945 1188.77 149.508 1188.77 135.785C1188.77 121.766 1191.06 110.255 1195.63 101.254C1200.36 92.2521 1206.85 85.6116 1215.11 81.3321C1223.38 76.9051 1232.97 74.6916 1243.89 74.6916C1249.5 74.6916 1254.81 75.2818 1259.83 76.4624C1264.99 77.6429 1269.71 79.4875 1273.99 81.9962C1278.27 84.5048 1281.89 87.6037 1284.84 91.2929H1286.61V33.7416H1320.03V194H1292.81L1290.15 176.292H1288.38C1283.22 183.67 1276.94 188.909 1269.57 192.008C1262.19 195.107 1254.07 196.656 1245.22 196.656ZM1254.74 169.651C1261.67 169.651 1267.5 168.397 1272.22 165.888C1276.94 163.232 1280.49 159.469 1282.85 154.599C1285.36 149.73 1286.61 143.827 1286.61 136.891V134.678C1286.61 129.513 1285.95 124.938 1284.62 120.954C1283.29 116.822 1281.22 113.354 1278.42 110.551C1275.62 107.599 1272.22 105.386 1268.24 103.91C1264.25 102.434 1259.68 101.696 1254.51 101.696C1247.58 101.696 1241.75 102.951 1237.03 105.459C1232.31 107.968 1228.76 111.657 1226.4 116.527C1224.04 121.249 1222.86 127.004 1222.86 133.792V137.777C1222.86 144.565 1224.04 150.394 1226.4 155.263C1228.91 159.986 1232.53 163.601 1237.25 166.11C1241.97 168.471 1247.8 169.651 1254.74 169.651ZM1390.66 196.656C1384.61 196.656 1378.78 196.14 1373.17 195.107C1367.56 194.074 1362.55 192.303 1358.12 189.794C1353.69 187.286 1350.22 183.818 1347.71 179.391C1345.21 174.964 1343.95 169.356 1343.95 162.568C1343.95 153.566 1346.31 146.409 1351.04 141.097C1355.76 135.785 1362.4 131.874 1370.96 129.365C1379.52 126.709 1389.62 125.012 1401.28 124.274C1412.94 123.389 1425.7 122.946 1439.58 122.946V117.412C1439.58 113.133 1438.54 109.591 1436.48 106.788C1434.56 103.984 1431.46 101.992 1427.18 100.811C1423.05 99.4829 1417.51 98.8189 1410.58 98.8189C1404.97 98.8189 1400.03 99.2616 1395.75 100.147C1391.47 101.032 1388.15 102.361 1385.79 104.131C1383.43 105.902 1382.25 108.042 1382.25 110.551V112.985H1348.82C1348.67 112.248 1348.53 111.657 1348.38 111.215C1348.38 110.624 1348.38 109.886 1348.38 109.001C1348.38 102.213 1350.81 96.2365 1355.68 91.0716C1360.7 85.9067 1367.93 81.9224 1377.38 79.1186C1386.82 76.1672 1398.48 74.6916 1412.35 74.6916C1425.48 74.6916 1436.55 76.0197 1445.55 78.6759C1454.55 81.1846 1461.42 85.3164 1466.14 91.0716C1470.86 96.6792 1473.22 104.131 1473.22 113.428V163.232C1473.22 166.036 1473.81 168.176 1474.99 169.651C1476.17 171.127 1478.02 171.865 1480.53 171.865H1490.93V192.893C1489.31 193.484 1486.5 194.221 1482.52 195.107C1478.68 196.14 1474.4 196.656 1469.68 196.656C1463.48 196.656 1458.54 195.918 1454.85 194.443C1451.16 192.967 1448.36 190.901 1446.44 188.245C1444.52 185.589 1443.12 182.637 1442.23 179.391H1440.68C1436.99 182.932 1432.57 186.031 1427.4 188.688C1422.38 191.344 1416.78 193.336 1410.58 194.664C1404.53 195.992 1397.89 196.656 1390.66 196.656ZM1400.18 172.529C1404.31 172.529 1408.66 172.012 1413.23 170.979C1417.81 169.946 1422.09 168.471 1426.07 166.552C1430.06 164.634 1433.3 162.199 1435.81 159.248C1438.32 156.296 1439.58 152.902 1439.58 149.066V142.868C1426 142.868 1414.56 143.458 1405.27 144.639C1396.12 145.672 1389.18 147.516 1384.46 150.172C1379.88 152.681 1377.6 156.223 1377.6 160.797C1377.6 163.896 1378.63 166.257 1380.7 167.881C1382.91 169.504 1385.71 170.684 1389.11 171.422C1392.65 172.16 1396.34 172.529 1400.18 172.529ZM1506 194V33.7416H1539.64V194H1506Z" fill="#372D56"/>
</svg>
