<svg width="1540" height="233" viewBox="0 0 1540 233" fill="none" xmlns="http://www.w3.org/2000/svg">
<path d="M189.999 208.415L166.176 184.592L142.353 208.415L166.176 232.237L189.999 208.415Z" fill="#C1AAFD"/>
<path d="M94.7472 184.675L94.7472 232.079C42.621 232.079 0.213073 189.671 0.213071 137.545H47.6171C47.616 163.533 68.7583 184.675 94.7472 184.675Z" fill="#372D56"/>
<path d="M189.741 94.5347H142.337C142.337 68.5468 121.194 47.4035 95.2061 47.4035L95.2061 -0.000488281C147.333 0.00055464 189.741 42.4085 189.741 94.5347Z" fill="#372D56"/>
<path d="M47.4144 23.7071C47.4144 10.6139 36.8003 -0.000136261 23.7072 -0.000135689C10.6141 -0.000135117 2.88773e-06 10.6139 3.46005e-06 23.7071C4.03237e-06 36.8002 10.6141 47.4143 23.7072 47.4143C36.8003 47.4143 47.4144 36.8002 47.4144 23.7071Z" fill="#FFD260"/>
<path d="M0.955049 77.3098C3.57331 92.015 13.0589 112.037 43.3852 123.908C64.4175 132.142 83.1483 136.024 98.2013 139.143C124.846 144.666 141.353 148.104 143.196 169.083H189.806C189.802 165.674 189.546 161.971 188.857 158.103C186.239 143.398 176.753 123.376 146.427 111.505C125.396 103.271 106.662 99.3888 91.6099 96.2687C64.0218 90.5511 47.2882 87.0837 46.4631 64.0474H0.0356113C-0.0932721 68.052 0.10868 72.5621 0.955049 77.3098Z" fill="#372D56"/>
<path d="M367.275 192.656C358.864 192.656 350.821 191.918 343.148 190.443C335.622 188.967 328.908 186.753 323.005 183.802C317.25 180.851 312.675 177.161 309.281 172.734C306.035 168.16 304.411 162.847 304.411 156.797C304.411 156.059 304.411 155.395 304.411 154.805C304.559 154.215 304.706 153.698 304.854 153.255H338.721C338.721 153.551 338.647 153.92 338.499 154.362C338.499 154.657 338.499 154.952 338.499 155.248C338.647 158.789 340.049 161.667 342.705 163.88C345.509 165.946 349.124 167.496 353.551 168.529C357.978 169.414 362.701 169.857 367.718 169.857C372.44 169.857 377.015 169.562 381.442 168.971C386.016 168.234 389.779 167.053 392.731 165.43C395.682 163.659 397.158 161.15 397.158 157.904C397.158 154.215 395.387 151.558 391.845 149.935C388.304 148.312 383.434 147.058 377.236 146.172C371.038 145.139 363.807 143.959 355.544 142.631C349.198 141.598 343.148 140.27 337.393 138.646C331.785 137.023 326.768 134.957 322.341 132.448C317.914 129.792 314.446 126.398 311.937 122.266C309.429 118.134 308.174 113.117 308.174 107.214C308.174 100.721 309.65 95.1876 312.601 90.613C315.7 85.8909 319.906 82.1279 325.218 79.3241C330.678 76.3727 337.098 74.233 344.476 72.9049C352.002 71.4292 360.192 70.6914 369.046 70.6914C377.162 70.6914 384.688 71.4292 391.624 72.9049C398.559 74.233 404.684 76.299 409.996 79.1027C415.308 81.759 419.514 85.153 422.613 89.2849C425.712 93.4168 427.261 98.2128 427.261 103.673C427.261 104.263 427.188 104.927 427.04 105.665C427.04 106.255 427.04 106.772 427.04 107.214H393.173V105.886C393.173 103.082 391.993 100.795 389.632 99.0244C387.418 97.106 384.467 95.7041 380.778 94.8187C377.088 93.9333 373.03 93.4906 368.603 93.4906C366.537 93.4906 363.955 93.6382 360.856 93.9333C357.905 94.0809 354.953 94.5236 352.002 95.2614C349.051 95.9992 346.542 97.0322 344.476 98.3603C342.558 99.5409 341.598 101.312 341.598 103.673C341.598 106.624 343.222 108.838 346.468 110.313C349.715 111.789 353.994 112.97 359.307 113.855C364.619 114.593 370.374 115.478 376.572 116.511C383.36 117.544 390.001 118.725 396.494 120.053C402.987 121.381 408.742 123.299 413.759 125.808C418.924 128.317 423.056 131.784 426.155 136.211C429.254 140.638 430.803 146.467 430.803 153.698C430.803 160.929 429.254 167.053 426.155 172.07C423.203 177.088 418.924 181.146 413.316 184.245C407.709 187.196 400.994 189.336 393.173 190.664C385.5 191.992 376.867 192.656 367.275 192.656Z" fill="#372D56"/>
<path d="M501.732 192.656C493.173 192.656 486.164 191.475 480.704 189.114C475.244 186.753 471.186 182.99 468.53 177.825C465.873 172.513 464.545 165.577 464.545 157.018V98.139H444.402V73.3476H465.652L472.293 39.2595H498.191V73.3476H527.188V98.139H498.191V152.591C498.191 157.461 499.15 161.224 501.068 163.88C503.134 166.537 507.266 167.865 513.464 167.865H527.188V188.893C525.269 189.631 522.761 190.295 519.662 190.885C516.563 191.475 513.39 191.918 510.144 192.213C506.897 192.508 504.093 192.656 501.732 192.656Z" fill="#372D56"/>
<path d="M550.34 190V73.3476H577.787L580.222 93.0479H581.772C583.69 88.7684 586.125 84.9317 589.076 81.5376C592.175 78.1436 595.864 75.4873 600.144 73.569C604.423 71.6506 609.293 70.6914 614.753 70.6914C617.409 70.6914 619.918 70.9127 622.279 71.3554C624.788 71.6506 627.001 72.1671 628.919 72.9049V101.681H614.089C608.776 101.681 604.202 102.566 600.365 104.337C596.528 105.96 593.429 108.321 591.068 111.42C588.707 114.371 586.936 117.765 585.756 121.602C584.575 125.439 583.985 129.645 583.985 134.219V190H550.34Z" fill="#372D56"/>
<path d="M708.81 192.656C694.201 192.656 681.584 190.516 670.959 186.237C660.482 181.81 652.439 175.095 646.832 166.094C641.224 157.092 638.42 145.656 638.42 131.784C638.42 118.061 641.15 106.698 646.61 97.6963C652.218 88.5471 660.187 81.759 670.516 77.3319C680.994 72.9049 693.389 70.6914 707.703 70.6914C722.46 70.6914 734.856 72.9049 744.89 77.3319C755.072 81.759 762.746 88.3257 767.911 97.0322C773.076 105.739 775.658 116.659 775.658 129.792V139.31H673.172C673.615 146.098 675.238 151.706 678.042 156.133C680.994 160.413 685.052 163.585 690.216 165.651C695.529 167.57 701.948 168.529 709.474 168.529C713.016 168.529 716.557 168.16 720.099 167.422C723.788 166.537 727.182 165.356 730.281 163.88C733.38 162.257 735.889 160.265 737.807 157.904C739.873 155.395 740.98 152.518 741.127 149.271H775.215C775.215 155.764 773.666 161.741 770.567 167.201C767.468 172.513 762.967 177.088 757.065 180.924C751.31 184.614 744.3 187.491 736.036 189.557C727.92 191.623 718.845 192.656 708.81 192.656ZM673.394 118.725H740.242C740.242 114.74 739.43 111.272 737.807 108.321C736.331 105.222 734.118 102.714 731.167 100.795C728.215 98.7292 724.821 97.2536 720.984 96.3682C717.148 95.3352 712.942 94.8187 708.367 94.8187C701.579 94.8187 695.677 95.7779 690.659 97.6963C685.642 99.4671 681.658 102.123 678.706 105.665C675.902 109.207 674.132 113.56 673.394 118.725Z" fill="#372D56"/>
<path d="M841.17 192.656C835.119 192.656 829.29 192.14 823.683 191.107C818.075 190.074 813.058 188.303 808.631 185.794C804.204 183.285 800.736 179.818 798.227 175.391C795.719 170.964 794.464 165.356 794.464 158.568C794.464 149.566 796.825 142.409 801.548 137.097C806.27 131.784 812.91 127.874 821.469 125.365C830.028 122.709 840.137 121.012 851.794 120.274C863.452 119.389 876.217 118.946 890.088 118.946V113.412C890.088 109.133 889.055 105.591 886.989 102.787C885.071 99.9836 881.972 97.9914 877.693 96.8109C873.561 95.4828 868.027 94.8187 861.091 94.8187C855.484 94.8187 850.54 95.2614 846.261 96.1468C841.981 97.0322 838.661 98.3603 836.3 100.131C833.939 101.902 832.758 104.042 832.758 106.55V108.985H799.334C799.187 108.247 799.039 107.657 798.891 107.214C798.891 106.624 798.891 105.886 798.891 105.001C798.891 98.2128 801.326 92.2363 806.196 87.0714C811.213 81.9065 818.444 77.9222 827.888 75.1184C837.333 72.1671 848.991 70.6914 862.862 70.6914C875.995 70.6914 887.063 72.0195 896.065 74.6757C905.066 77.1844 911.928 81.3163 916.65 87.0714C921.373 92.679 923.734 100.131 923.734 109.428V159.232C923.734 162.036 924.324 164.175 925.504 165.651C926.685 167.127 928.53 167.865 931.038 167.865H941.442V188.893C939.818 189.483 937.015 190.221 933.03 191.107C929.194 192.14 924.914 192.656 920.192 192.656C913.994 192.656 909.051 191.918 905.361 190.443C901.672 188.967 898.868 186.901 896.95 184.245C895.032 181.588 893.63 178.637 892.744 175.391H891.195C887.506 178.932 883.079 182.031 877.914 184.687C872.897 187.344 867.289 189.336 861.091 190.664C855.041 191.992 848.4 192.656 841.17 192.656ZM850.688 168.529C854.82 168.529 859.173 168.012 863.747 166.979C868.322 165.946 872.601 164.471 876.586 162.552C880.57 160.634 883.817 158.199 886.325 155.248C888.834 152.296 890.088 148.902 890.088 145.065V138.868C876.512 138.868 865.076 139.458 855.779 140.638C846.63 141.671 839.694 143.516 834.972 146.172C830.397 148.681 828.11 152.223 828.11 156.797C828.11 159.896 829.143 162.257 831.209 163.88C833.422 165.504 836.226 166.684 839.62 167.422C843.162 168.16 846.851 168.529 850.688 168.529Z" fill="#372D56"/>
<path d="M956.511 190V73.3476H983.958L986.393 91.9411H988.164C991.853 86.9238 996.059 82.8657 1000.78 79.7668C1005.5 76.6679 1010.59 74.3806 1016.05 72.9049C1021.66 71.4292 1027.27 70.6914 1032.88 70.6914C1042.76 70.6914 1051.03 72.4622 1057.67 76.0038C1064.46 79.3979 1069.47 84.7103 1072.72 91.9411H1074.71C1078.4 86.9238 1082.68 82.8657 1087.55 79.7668C1092.42 76.6679 1097.59 74.3806 1103.05 72.9049C1108.65 71.4292 1114.26 70.6914 1119.87 70.6914C1129.61 70.6914 1137.8 72.3146 1144.44 75.5611C1151.08 78.8076 1156.1 83.8249 1159.49 90.613C1162.88 97.4011 1164.58 106.034 1164.58 116.511V190H1131.16V121.824C1131.16 117.544 1130.57 113.855 1129.39 110.756C1128.35 107.657 1126.8 105.148 1124.74 103.23C1122.67 101.312 1120.16 99.9098 1117.21 99.0244C1114.41 98.139 1111.16 97.6963 1107.47 97.6963C1102.16 97.6963 1097.22 98.9506 1092.64 101.459C1088.07 103.82 1084.38 107.214 1081.57 111.641C1078.77 115.921 1077.37 120.938 1077.37 126.693V190H1043.94V121.824C1043.94 117.544 1043.35 113.855 1042.17 110.756C1041.14 107.657 1039.59 105.148 1037.53 103.23C1035.46 101.312 1032.95 99.9098 1030 99.0244C1027.2 98.139 1023.95 97.6963 1020.26 97.6963C1014.8 97.6963 1009.78 98.9506 1005.21 101.459C1000.63 103.82 996.944 107.214 994.141 111.641C991.484 115.921 990.156 120.938 990.156 126.693V190H956.511Z" fill="#372D56"/>
<path d="M1245.22 192.656C1233.85 192.656 1223.97 190.516 1215.56 186.237C1207.14 181.81 1200.58 175.095 1195.86 166.094C1191.13 156.945 1188.77 145.508 1188.77 131.784C1188.77 117.765 1191.06 106.255 1195.63 97.2536C1200.36 88.2519 1206.85 81.6114 1215.11 77.3319C1223.38 72.9049 1232.97 70.6914 1243.89 70.6914C1249.5 70.6914 1254.81 71.2817 1259.83 72.4622C1264.99 73.6427 1269.71 75.4873 1273.99 77.996C1278.27 80.5046 1281.89 83.6036 1284.84 87.2927H1286.61V29.7414H1320.03V190H1292.81L1290.15 172.292H1288.38C1283.22 179.67 1276.94 184.909 1269.57 188.008C1262.19 191.107 1254.07 192.656 1245.22 192.656ZM1254.74 165.651C1261.67 165.651 1267.5 164.397 1272.22 161.888C1276.94 159.232 1280.49 155.469 1282.85 150.599C1285.36 145.73 1286.61 139.827 1286.61 132.891V130.678C1286.61 125.513 1285.95 120.938 1284.62 116.954C1283.29 112.822 1281.22 109.354 1278.42 106.55C1275.62 103.599 1272.22 101.385 1268.24 99.9098C1264.25 98.4341 1259.68 97.6963 1254.51 97.6963C1247.58 97.6963 1241.75 98.9506 1237.03 101.459C1232.31 103.968 1228.76 107.657 1226.4 112.527C1224.04 117.249 1222.86 123.004 1222.86 129.792V133.777C1222.86 140.565 1224.04 146.394 1226.4 151.263C1228.91 155.985 1232.53 159.601 1237.25 162.11C1241.97 164.471 1247.8 165.651 1254.74 165.651Z" fill="#372D56"/>
<path d="M1390.66 192.656C1384.61 192.656 1378.78 192.14 1373.17 191.107C1367.56 190.074 1362.55 188.303 1358.12 185.794C1353.69 183.285 1350.22 179.818 1347.71 175.391C1345.21 170.964 1343.95 165.356 1343.95 158.568C1343.95 149.566 1346.31 142.409 1351.04 137.097C1355.76 131.784 1362.4 127.874 1370.96 125.365C1379.52 122.709 1389.62 121.012 1401.28 120.274C1412.94 119.389 1425.7 118.946 1439.58 118.946V113.412C1439.58 109.133 1438.54 105.591 1436.48 102.787C1434.56 99.9836 1431.46 97.9914 1427.18 96.8109C1423.05 95.4828 1417.51 94.8187 1410.58 94.8187C1404.97 94.8187 1400.03 95.2614 1395.75 96.1468C1391.47 97.0322 1388.15 98.3603 1385.79 100.131C1383.43 101.902 1382.25 104.042 1382.25 106.55V108.985H1348.82C1348.67 108.247 1348.53 107.657 1348.38 107.214C1348.38 106.624 1348.38 105.886 1348.38 105.001C1348.38 98.2128 1350.81 92.2363 1355.68 87.0714C1360.7 81.9065 1367.93 77.9222 1377.38 75.1184C1386.82 72.1671 1398.48 70.6914 1412.35 70.6914C1425.48 70.6914 1436.55 72.0195 1445.55 74.6757C1454.55 77.1844 1461.42 81.3163 1466.14 87.0714C1470.86 92.679 1473.22 100.131 1473.22 109.428V159.232C1473.22 162.036 1473.81 164.175 1474.99 165.651C1476.17 167.127 1478.02 167.865 1480.53 167.865H1490.93V188.893C1489.31 189.483 1486.5 190.221 1482.52 191.107C1478.68 192.14 1474.4 192.656 1469.68 192.656C1463.48 192.656 1458.54 191.918 1454.85 190.443C1451.16 188.967 1448.36 186.901 1446.44 184.245C1444.52 181.588 1443.12 178.637 1442.23 175.391H1440.68C1436.99 178.932 1432.57 182.031 1427.4 184.687C1422.38 187.344 1416.78 189.336 1410.58 190.664C1404.53 191.992 1397.89 192.656 1390.66 192.656ZM1400.18 168.529C1404.31 168.529 1408.66 168.012 1413.23 166.979C1417.81 165.946 1422.09 164.471 1426.07 162.552C1430.06 160.634 1433.3 158.199 1435.81 155.248C1438.32 152.296 1439.58 148.902 1439.58 145.065V138.868C1426 138.868 1414.56 139.458 1405.27 140.638C1396.12 141.671 1389.18 143.516 1384.46 146.172C1379.88 148.681 1377.6 152.223 1377.6 156.797C1377.6 159.896 1378.63 162.257 1380.7 163.88C1382.91 165.504 1385.71 166.684 1389.11 167.422C1392.65 168.16 1396.34 168.529 1400.18 168.529Z" fill="#372D56"/>
<path d="M1506 190V29.7414H1539.64V190H1506Z" fill="#372D56"/>
</svg>
