<svg width="48" height="48" viewBox="0 0 48 48" fill="none" xmlns="http://www.w3.org/2000/svg">
<circle cx="24" cy="24" r="21" fill="white"/>
<path d="M36.5437 35.9226L33.4663 32.8452L30.389 35.9226L33.4663 39L36.5437 35.9226Z" fill="#C1AAFD"/>
<path d="M24.2395 32.8557L24.2395 38.9793C17.5059 38.9793 12.0277 33.5011 12.0277 26.7675L18.1513 26.7675C18.1512 30.1246 20.8823 32.8557 24.2395 32.8557Z" fill="#372D56"/>
<path d="M36.5104 21.2119L30.3869 21.2119C30.3869 17.8549 27.6556 15.1236 24.2985 15.1236L24.2985 9.00006C31.0322 9.00019 36.5104 14.4784 36.5104 21.2119Z" fill="#372D56"/>
<path d="M18.1249 12.0625C18.1249 10.3711 16.7538 9.00003 15.0625 9.00003C13.3711 9.00003 12 10.3711 12 12.0625C12 13.7538 13.3711 15.1249 15.0625 15.1249C16.7538 15.1249 18.1249 13.7538 18.1249 12.0625Z" fill="#FFD260"/>
<path d="M12.1234 18.9868C12.4616 20.8864 13.6869 23.4728 17.6044 25.0063C20.3213 26.07 22.7409 26.5714 24.6855 26.9743C28.1273 27.6877 30.2597 28.1319 30.4978 30.8419L36.5188 30.8419C36.5183 30.4016 36.4853 29.9231 36.3962 29.4236C36.058 27.524 34.8327 24.9376 30.9152 23.4041C28.1984 22.3404 25.7784 21.8389 23.834 21.4359C20.2702 20.6973 18.1086 20.2494 18.002 17.2736L12.0046 17.2736C11.988 17.7909 12.014 18.3735 12.1234 18.9868Z" fill="#372D56"/>
</svg>
